#!OML:ASF F:\VICON\USERDATA\INSTALL\rory3\rory3.ASF
:FULLY-SPECIFIED
:DEGREES
1615
root -2.49386 16.5914 -1.2307 189.227 148.738 197.693
lowerback 16.7774 -4.10906 1.65001
upperback 7.58705 -4.82786 3.41422
thorax -1.11243 -2.33988 3.49455
lowerneck -15.7475 2.15238 -8.86058
upperneck 39.6753 7.3855 -1.16543
head 16.8742 1.72956 2.45684
rclavicle -6.36111e-014 3.81667e-014
rhumerus -30.1124 3.46389 -70.7583
rradius 49.23
rwrist 18.1856
rhand -25.3909 4.27514
rfingers 7.12502
rthumb 1.13406 -25.7016
lclavicle -6.36111e-014 3.81667e-014
lhumerus -34.4406 -11.3538 92.0646
lradius 31.6185
lwrist -10.3816
lhand -23.1809 24.3425
lfingers 7.12502
lthumb 3.26837 54.2972
rfemur -33.2536 9.3679 -2.95256
rtibia 58.3948
rfoot -19.6854 12.5896
rtoes -3.77917
lfemur -76.9679 29.3114 -21.5779
ltibia 118.045
lfoot 19.7638 -22.4916
ltoes -22.6135
1616
root -2.46892 16.5536 -1.26874 188.762 148.613 197.378
lowerback 16.8018 -3.97703 1.42953
upperback 7.6356 -4.69067 3.3982
thorax -1.06403 -2.27762 3.57706
lowerneck -15.69 2.09749 -8.63366
upperneck 39.5157 7.19143 -1.14683
head 16.7856 1.6953 2.38573
rclavicle 5.24792e-014 -7.31528e-014
rhumerus -30.3388 3.2038 -70.8892
rradius 49.1271
rwrist 18.0647
rhand -25.1824 4.2682
rfingers 7.12502
rthumb 1.3354 -25.7074
lclavicle 5.24792e-014 -7.31528e-014
lhumerus -35.0696 -11.9287 92.2031
lradius 32.6781
lwrist -9.1635
lhand -23.1495 23.9332
lfingers 7.12502
lthumb 3.29873 53.8874
rfemur -33.1728 9.23094 -2.75943
rtibia 58.7811
rfoot -19.7415 12.8995
rtoes -3.47259
lfemur -76.822 29.451 -21.2769
ltibia 118.022
lfoot 20.8776 -23.2729
ltoes -24.5236
1617
root -2.44541 16.516 -1.31399 188.36 148.514 197.102
lowerback 16.9198 -3.86683 1.14115
upperback 7.61755 -4.587 3.38799
thorax -1.1282 -2.23306 3.71952
lowerneck -15.6659 2.05813 -8.55072
upperneck 39.4235 7.06105 -1.07423
head 16.7312 1.66863 2.37708
rclavicle -1.43125e-014 -2.22639e-014
rhumerus -30.5778 3.09037 -71.0161
rradius 49.0672
rwrist 18.0291
rhand -24.9121 4.19433
rfingers 7.12502
rthumb 1.59647 -25.7794
lclavicle -1.43125e-014 -2.22639e-014
lhumerus -35.805 -12.2984 92.2809
lradius 33.8213
lwrist -8.24919
lhand -22.9765 23.8631
lfingers 7.12502
lthumb 3.46578 53.8147
rfemur -33.1626 9.11553 -2.6387
rtibia 59.1459
rfoot -19.8184 13.135
rtoes -3.69641
lfemur -76.7539 29.5845 -21.1366
ltibia 117.993
lfoot 21.2451 -24.2316
ltoes -26.098
1618
root -2.42246 16.477 -1.35914 187.884 148.4 196.818
lowerback 17.1109 -3.73658 0.832135
upperback 7.68077 -4.45674 3.41419
thorax -1.14115 -2.17593 3.90945
lowerneck -15.8825 1.93597 -8.61931
upperneck 39.3171 6.8447 -0.901484
head 16.7225 1.59208 2.43021
rclavicle -1.54257e-013 6.67916e-014
rhumerus -30.6779 2.9375 -71.0554
rradius 48.9615
rwrist 17.9887
rhand -24.7323 3.97851
rfingers 7.12502
rthumb 1.77012 -25.9939
lclavicle -1.54257e-013 6.67916e-014
lhumerus -36.3914 -12.6454 92.3793
lradius 34.9614
lwrist -7.66374
lhand -22.9712 23.9597
lfingers 7.12502
lthumb 3.47091 53.9111
rfemur -33.0683 8.94836 -2.48996
rtibia 59.4941
rfoot -19.8738 13.3908
rtoes -3.73977
lfemur -76.6264 29.7412 -21.0189
ltibia 117.991
lfoot 21.229 -25.2747
ltoes -26.699
1619
root -2.39611 16.4364 -1.39869 187.243 148.229 196.404
lowerback 17.2224 -3.6449 0.620914
upperback 7.85836 -4.36403 3.49241
thorax -0.992062 -2.13759 4.09563
lowerneck -16.1497 1.86083 -8.67741
upperneck 39.1591 6.74631 -0.846641
head 16.7033 1.55046 2.45
rclavicle -3.18055e-014 3.49861e-014
rhumerus -30.6519 2.93873 -71.0524
rradius 48.791
rwrist 18.047
rhand -24.7512 3.8521
rfingers 7.12502
rthumb 1.75185 -26.1205
lclavicle -3.18055e-014 3.49861e-014
lhumerus -36.8238 -13.0613 92.5618
lradius 36.0479
lwrist -6.92748
lhand -23.2603 23.8976
lfingers 7.12502
lthumb 3.19176 53.8534
rfemur -32.833 8.77727 -2.1956
rtibia 59.8334
rfoot -19.9271 13.6498
rtoes -3.82292
lfemur -76.4409 29.9595 -20.7232
ltibia 118.064
lfoot 21.2342 -26.3911
ltoes -27.0715
1620
root -2.37239 16.3937 -1.44297 186.605 148.023 195.869
lowerback 17.3245 -3.56175 0.507984
upperback 7.94766 -4.26645 3.59172
thorax -0.938888 -2.0942 4.25145
lowerneck -16.0864 1.89831 -8.47497
upperneck 39.013 6.80452 -1.06792
head 16.6284 1.58206 2.32244
rclavicle 6.67916e-014 -1.90833e-014
rhumerus -30.767 2.84288 -71.0473
rradius 48.6471
rwrist 18.2202
rhand -24.8771 3.87532
rfingers 7.12502
rthumb 1.6303 -26.0982
lclavicle 6.67916e-014 -1.90833e-014
lhumerus -37.5429 -13.4621 92.7763
lradius 37.3447
lwrist -6.14728
lhand -23.5148 23.8453
lfingers 7.12502
lthumb 2.94594 53.8047
rfemur -32.683 8.58891 -1.80726
rtibia 60.161
rfoot -19.949 13.9154
rtoes -3.77463
lfemur -76.494 30.1657 -20.4155
ltibia 118.179
lfoot 21.1725 -27.7113
ltoes -28.0453
1621
root -2.34745 16.3522 -1.49427 186.084 147.861 195.466
lowerback 17.53 -3.4239 0.334106
upperback 7.92423 -4.10573 3.61803
thorax -1.06677 -2.01755 4.36492
lowerneck -15.8756 1.91151 -8.1958
upperneck 38.8515 6.7629 -1.24597
head 16.5119 1.5948 2.17935
rclavicle 6.99722e-014 -1.27222e-014
rhumerus -31.0883 2.60706 -71.0542
rradius 48.5775
rwrist 18.3334
rhand -24.9225 3.94995
rfingers 7.12502
rthumb 1.5864 -26.0239
lclavicle 6.99722e-014 -1.27222e-014
lhumerus -38.5014 -13.9767 93.0015
lradius 38.7314
lwrist -5.31257
lhand -23.6456 23.64
lfingers 7.12502
lthumb 2.8196 53.6011
rfemur -32.6024 8.33657 -1.58257
rtibia 60.4584
rfoot -19.8819 14.2964
rtoes -3.37883
lfemur -76.6403 30.3127 -20.341
ltibia 118.303
lfoot 21.252 -28.6035
ltoes -29.7636
1622
root -2.32008 16.3117 -1.54444 185.418 147.705 194.876
lowerback 17.7356 -3.28868 0.314615
upperback 7.96883 -3.92262 3.69529
thorax -1.13126 -1.92706 4.43827
lowerneck -15.9216 1.82633 -8.12123
upperneck 38.723 6.62015 -1.28272
head 16.466 1.54661 2.12382
rclavicle 4.6118e-014 -7.31528e-014
rhumerus -31.3369 2.46662 -71.0282
rradius 48.5332
rwrist 18.3466
rhand -25.0479 4.065
rfingers 7.12502
rthumb 1.46529 -25.9097
lclavicle 4.6118e-014 -7.31528e-014
lhumerus -39.1766 -14.3891 93.2476
lradius 40.0887
lwrist -4.22707
lhand -23.4484 24.1921
lfingers 7.12502
lthumb 3.01009 54.1506
rfemur -32.4433 8.09649 -1.17282
rtibia 60.7329
rfoot -19.8305 14.6462
rtoes -3.1881
lfemur -76.7706 30.6012 -20.0973
ltibia 118.498
lfoot 21.9372 -28.886
ltoes -27.981
1623
root -2.29573 16.2761 -1.59399 184.74 147.468 194.351
lowerback 18.0133 -3.16182 0.260815
upperback 7.99976 -3.75282 3.76654
thorax -1.24508 -1.84283 4.53151
lowerneck -15.9665 1.70788 -8.20528
upperneck 38.701 6.4061 -1.10313
head 16.4597 1.47188 2.18019
rclavicle -3.97569e-014 -3.18055e-015
rhumerus -31.5839 2.33899 -70.9745
rradius 48.4587
rwrist 18.3226
rhand -25.2905 4.13125
rfingers 7.12502
rthumb 1.23101 -25.8449
lclavicle -3.97569e-014 -3.18055e-015
lhumerus -39.8025 -14.6737 93.4991
lradius 41.1902
lwrist -3.67462
lhand -23.5461 24.2241
lfingers 7.12502
lthumb 2.91575 54.184
rfemur -32.1684 7.7673 -0.798438
rtibia 60.9797
rfoot -19.8078 14.9735
rtoes -3.21348
lfemur -76.8326 30.8235 -19.8795
ltibia 118.72
lfoot 22.232 -29.8109
ltoes -30.6951
1624
root -2.27074 16.2425 -1.64236 184.224 147.196 193.94
lowerback 18.1584 -3.03981 0.104344
upperback 8.00637 -3.61232 3.81169
thorax -1.31001 -1.77635 4.65192
lowerneck -15.9289 1.63772 -8.29402
upperneck 38.6747 6.21405 -0.821457
head 16.4222 1.42241 2.28333
rclavicle 6.12257e-014 -9.54166e-015
rhumerus -31.8261 2.20808 -70.9406
rradius 48.3875
rwrist 18.3379
rhand -25.4126 4.07255
rfingers 7.12502
rthumb 1.11308 -25.9043
lclavicle 6.12257e-014 -9.54166e-015
lhumerus -40.4628 -14.9982 93.7595
lradius 42.2945
lwrist -3.02352
lhand -23.7069 24.0203
lfingers 7.12502
lthumb 2.76044 53.9822
rfemur -31.9808 7.28316 -0.560423
rtibia 61.2119
rfoot -19.8065 15.3187
rtoes -3.67471
lfemur -77.0367 30.9235 -19.8585
ltibia 118.963
lfoot 22.355 -30.3442
ltoes -30.4726
1625
root -2.24732 16.2094 -1.68587 183.671 146.993 193.342
lowerback 18.1483 -2.89965 -0.095176
upperback 8.05473 -3.45895 3.93046
thorax -1.24399 -1.70857 4.8619
lowerneck -15.8541 1.61523 -8.24514
upperneck 38.5973 6.09718 -0.691062
head 16.3596 1.40528 2.30733
rclavicle -1.19271e-014 3.18055e-015
rhumerus -31.9794 2.0917 -70.9237
rradius 48.3098
rwrist 18.3925
rhand -25.3196 4.02656
rfingers 7.12502
rthumb 1.20287 -25.9498
lclavicle -1.19271e-014 3.18055e-015
lhumerus -40.9405 -15.1526 93.9608
lradius 43.2656
lwrist -2.21843
lhand -23.7739 23.6578
lfingers 7.12502
lthumb 2.69567 53.6205
rfemur -31.8769 6.85678 -0.141088
rtibia 61.382
rfoot -19.7567 15.595
rtoes -4.00875
lfemur -77.398 31.2139 -19.7426
ltibia 119.231
lfoot 22.5428 -30.7876
ltoes -30.6105
